# xmcd
#
# Track frame offsets:
#	150
#	14333
#	29112
#	43410
#	64428
#
# Disc length: 1079 seconds
#
# Revision: 1
# Processed by: cddbd v1.5.2PL0 Copyright (c) Steve Scherf et al.
# Submitted via: audiograbber 1.83.01
#
DISCID=4a043505
DTITLE=J56 - Dark side of Me
DYEAR=2011
DGENRE=Indie
TTITLE0=Last teardrop Falls
TTITLE1=Burnin in Hell
TTITLE2=My beatiful World
TTITLE3=The ghost of a Dead
TTITLE4=The death of the Heart
EXTD=crg
EXTT0=
EXTT1=
EXTT2=
EXTT3=
EXTT4=
PLAYORDER=
